{"title":"The Wrong Girl - S01E01","uid":15967580,"size":1135782054,"categoryP":"video","categoryS":"tv_shows","magnet":"?xt=urn:btih:2985ff370375fcf9017ac7c076f350de6a49e3a9&amp;dn=The+Wrong+Girl+-+S01E01&amp;tr=udp%3A%2F%2Ftracker.leechers-paradise.org%3A6969&amp;tr=udp%3A%2F%2Fzer0day.ch%3A1337&amp;tr=udp%3A%2F%2Fopen.demonii.com%3A1337&amp;tr=udp%3A%2F%2Ftracker.coppersurfer.tk%3A6969&amp;tr=udp%3A%2F%2Fexodus.desync.com%3A6969","seeders":6,"leechers":3,"uploader":"Bullrout","files":1,"time":1475740843,"description":"The Wrong Girl - S01E01\r\n\r\nBased on Zoe Foster Blake's bestselling novel, The Wrong Girl stars Jessica Marais as Lily, a producer of a cooking segment on a morning TV show who finds herself torn between two very different men.\r\n\r\nComplete name                            : The Wrong Girl - S01E01.mkv\r\nFormat                                   : Matroska\r\nFormat version                           : Version 4 / Version 2\r\nFile size                                : 1.06 GiB\r\nDuration                                 : 45 min 41 s\r\nOverall bit rate mode                    : Variable\r\nOverall bit rate                         : 3 314 kb/s\r\nEncoded date                             : UTC 2016-10-05 04:45:41\r\nWriting application                      : mkvmerge v9.4.2 ('So High') 64bit\r\nWriting library                          : libebml v1.3.4 + libmatroska v1.4.5\r\n\r\nVideo\r\nID                                       : 2\r\nFormat                                   : AVC\r\nFormat/Info                              : Advanced Video Codec\r\nFormat profile                           :   \r\nFormat settings, CABAC                   : Yes\r\nFormat settings, ReFrames                : 3 frames\r\nCodec ID                                 : V_MPEG4/ISO/AVC\r\nDuration                                 : 45 min 41 s\r\nBit rate mode                            : Variable\r\nBit rate                                 : 2 928 kb/s\r\nMaximum bit rate                         : 3 000 kb/s\r\nWidth                                    : 1 280 pixels\r\nHeight                                   : 720 pixels\r\nDisplay aspect ratio                     : 16:9\r\nFrame rate mode                          : Constant\r\nFrame rate                               : 25.000 FPS\r\nStandard                                 : PAL\r\nColor space                              : YUV\r\nChroma subsampling                       : 4:2:0\r\nBit depth                                : 8 bits\r\nScan type                                : Progressive\r\nBits/(Pixel*Frame)                       : 0.127\r\nStream size                              : 957 MiB (88%)\r\nWriting library                          : x264 core 112\r\nDefault                                  : Yes\r\nForced                                   : No\r\nColor range                              : Limited\r\nColor primaries                          : BT.709\r\nTransfer characteristics                 : BT.709\r\nMatrix coefficients                      : BT.709\r\n\r\nAudio\r\nID                                       : 1\r\nFormat                                   : AC-3\r\nFormat/Info                              : Audio Coding 3\r\nMode extension                           : CM (complete main)\r\nFormat settings, Endianness              : Big\r\nCodec ID                                 : A_AC3\r\nDuration                                 : 45 min 41 s\r\nBit rate mode                            : Constant\r\nBit rate                                 : 384 kb/s\r\nChannel(s)                               : 6 channels\r\nChannel positions                        : Front: L C R, Side: L R, LFE\r\nSampling rate                            : 48.0 kHz\r\nFrame rate                               : 31.250 FPS (1536 spf)\r\nCompression mode                         : Lossy\r\nStream size                              : 126 MiB (12%)\r\nDefault                                  : Yes\r\nForced                                   : No","torrent":{"xt":"urn:btih:2985ff370375fcf9017ac7c076f350de6a49e3a9","amp;dn":"The+Wrong+Girl+-+S01E01","amp;tr":["udp%3A%2F%2Ftracker.leechers-paradise.org%3A6969","udp%3A%2F%2Fzer0day.ch%3A1337","udp%3A%2F%2Fopen.demonii.com%3A1337","udp%3A%2F%2Ftracker.coppersurfer.tk%3A6969","udp%3A%2F%2Fexodus.desync.com%3A6969"],"infoHash":"2985ff370375fcf9017ac7c076f350de6a49e3a9","infoHashBuffer":{"type":"Buffer","data":[41,133,255,55,3,117,252,249,1,122,199,192,118,243,80,222,106,73,227,169]},"announce":[],"urlList":[]}}